<?xml version="1.0" encoding="utf-8"?>
<!-- Generator: Adobe Illustrator 16.0.3, SVG Export Plug-In . SVG Version: 6.00 Build 0)  -->
<!DOCTYPE svg PUBLIC "-//W3C//DTD SVG 1.1//EN" "http://www.w3.org/Graphics/SVG/1.1/DTD/svg11.dtd">
<svg version="1.1" id="Capa_1" xmlns="http://www.w3.org/2000/svg" xmlns:xlink="http://www.w3.org/1999/xlink" x="0px" y="0px"
	 width="397.586px" height="327.094px" viewBox="0 0 397.586 327.094" enable-background="new 0 0 397.586 327.094"
	 xml:space="preserve">
<path fill-rule="evenodd" clip-rule="evenodd" fill="#1A2F36" d="M302.567,250.102c10.313-2.951,20.478-6.488,31.197-7.808
	c2.729-0.524,5.482-1.297,8.14,0.208c4.166,2.359,5.06,6.412,2.701,11.942c-2.693,4.366-6.372,7.773-10.522,10.718
	c-0.715,0.574-1.475,1.084-2.272,1.532c-1.988,0.797-3.143,2.13-2.825,4.413c-0.688,2.83-1.938,5.262-4.676,6.645
	c-0.333,0-0.667,0-1,0c-3.927-1.12-8.061-1.466-11.838-3.145c-2.494-1.229-5.119-2.117-7.772-2.918
	c-2.544-1.065-3.313,1.276-4.682,2.455c-1.311,1.54-3.002,2.583-4.708,3.607c-4.333,0-8.667,0-13,0
	c-0.615-0.52-1.371-0.751-2.109-1.023c-6.352-3.752-6.618-9.816-6.022-16.133c0.201-2.135,0.81-4.229,1.167-6.35
	c4.018-10.855,9.636-13.023,19.889-8.003C296.973,247.584,299.125,250.279,302.567,250.102z"/>
<path fill-rule="evenodd" clip-rule="evenodd" fill="#F2F0EF" d="M275.204,254.088c-0.241,2.291-0.34,4.607-0.751,6.867
	c-1.166,6.406,0.836,11.617,5.663,15.85c-1.923,0.843-3.95,0.408-5.922,0.409c-72.332,0.026-144.664,0.018-216.995,0.049
	c-1.96,0.001-3.999-0.513-5.89,0.489c-3.666,0-7.334,0-11,0c-0.246-3.496,2.297-3.244,4.377-2.943
	c4.829,0.697,5.868-1.498,5.699-5.9c-0.314-8.143-0.117-16.308-0.068-24.463c0.009-1.599-0.545-3.373,0.959-4.691
	c0.406,0.479,0.746,1.002,1.023,1.565c1.143,6.572,0.41,13.202,0.533,19.805c0.279,15.026-1.867,12.879,13.33,13.075
	c6.455,0.084,12.91-0.102,19.367,0.082c18.781-0.258,37.561-0.105,56.336-0.101c4.951,0.136,9.906-0.007,14.855,0.146
	c1.465-0.131,2.934-0.049,4.398-0.029c4.414,0.102,8.895,0.618,12.895-2.01c20.411,3.957,41.031,1.015,61.533,1.899
	c2.818,0.122,5.644-0.046,8.463,0.024c4.497,0.387,9.002-0.038,13.497,0.09c6.341-0.312,11.194-4.068,13.22-10.115
	c1.568-4.678,1.063-9.502,1.248-14.288c0.085-2.211-0.647-4.732,1.734-6.354C278.054,246.517,276.05,250.385,275.204,254.088z"/>
<path fill-rule="evenodd" clip-rule="evenodd" fill="#FFFFFF" d="M51.31,277.752c1.311-1.518,3.09-0.965,4.684-0.965
	c74.708-0.012,149.416,0.004,224.123,0.018c0.552,0.121,1.162,0.17,1.193,0.947C204.644,277.752,127.976,277.752,51.31,277.752z"/>
<path fill-rule="evenodd" clip-rule="evenodd" fill="#F24F5A" d="M331.026,266.039c0.613-0.399,1.228-0.798,1.841-1.197
	c8.436,0.389,16.309,3.238,24.309,5.547c1.197,2.034,0.415,3.713-0.95,5.287c-3.255,0.066-6.511,0.092-9.763,0.218
	c-1.327,0.052-3.169-0.558-3.153,1.858c-3,0-6,0-9,0c-1.231-1.09-2.949-0.016-4.21-0.939c-1.228-0.899-1.965-2.789-0.473-3.057
	c3.915-0.704-0.26-2.014,0.409-2.846c0.113-0.142-0.147-0.608-0.209-0.935C329.584,268.468,330.479,267.307,331.026,266.039z"/>
<path fill-rule="evenodd" clip-rule="evenodd" fill="#DE4F5A" d="M303.759,270.617c2.714,0.77,5.545,1.249,7.779,3.188
	c-0.419,2.609-2.513,2.576-4.464,2.984c-1.913,0.4-3.943,0.066-5.765,0.963c-2.333,0-4.667,0-7,0
	c0.556-1.866,2.163-2.791,3.526-3.932C300.06,273.213,301.116,270.449,303.759,270.617z"/>
<path fill-rule="evenodd" clip-rule="evenodd" fill="#E8E5E5" d="M301.31,277.752c3.045-2.258,7.429-1.045,10.227-3.947
	c4.179,0.563,8.05,2.033,11.773,3.947C315.977,277.752,308.643,277.752,301.31,277.752z"/>
<path fill-rule="evenodd" clip-rule="evenodd" fill="#CD4B56" d="M330.737,269.746c0.307,0.766,0.765,1.507,0.89,2.301
	c0.241,1.537,3.832-0.579,2.514,2.23c-1.129,2.408-2.818-0.835-4.35,0.129c-0.155,3.357,3.612,1.488,4.519,3.346
	c-3.333,0-6.667,0-10,0c1.399-2.352,2.799-4.704,4.199-7.057C329.057,269.924,329.78,269.561,330.737,269.746z"/>
<path fill-rule="evenodd" clip-rule="evenodd" fill="#E2E2E1" d="M167.21,117.771c-11.023,1.449-21.561,5.062-32.404,7.315
	c-4.689,0.975-9.33,2.189-13.975,3.361c-4.354,1.098-7.029-0.299-8.114-4.834c-3.39-14.163-6.888-28.299-10.353-42.444
	c-1.809-7.389-3.641-14.773-5.456-22.161c-1.606-6.535-0.833-8.21,5.479-9.738c19.13-4.63,38.454-8.533,57.403-13.798
	c12.766-3.547,12.101-1.307,14.865,9.614c1.162,4.59,1.619,9.405,3.764,13.734c0.053,1.576-1.123,2.341-2.174,3.103
	c-5.635,4.083-7.514,9.806-7.482,16.484c0.051,10.941,0.052,21.882-0.018,32.823C168.731,113.491,169.173,115.934,167.21,117.771z"
	/>
<path fill-rule="evenodd" clip-rule="evenodd" fill="#E2E2E1" d="M286.421,151.935c-2.731-2.675-6.529-1.989-9.783-3.018
	c-1.594-0.504-2.29,0.849-2.29,2.429c0.003,8.992-0.003,17.983-0.031,26.975c-0.004,1.376,0.542,2.21,1.938,2.407
	c-0.682,2.572-1.819,3.42-3.826,1.012c-0.95-2.394-0.716-4.91-0.718-7.388c-0.021-31.715-0.035-63.431,0.024-95.146
	c0.005-2.895-0.739-6.052,1.743-8.484c1.771,2.584,1.031,5.546,0.78,8.224c-0.354,3.768,1.418,4.975,4.588,5.513
	c12.198,2.069,24.366,4.328,36.587,6.251c10.268,1.616,20.382,4.075,30.731,5.279c3.311,0.385,5.773,2.587,5.002,6.684
	c-3.298,17.507-6.65,35.005-9.764,52.545c-0.521,2.934-2.384,4.688-4.515,4.284c-6.884-1.306-14.113-1.313-20.516-4.724
	c-1.348-1.861-0.411-3.454,0.587-5.036c5.396-1.333,10.415,1.197,14.832,1.273c-4.87-0.866-10.502-2.345-16.339-2.611
	c-2.146-0.109-4.213-0.52-6.111-1.573c-2.319-1.274-4.792-2.199-7.279-3.083c-0.419-0.125-0.825-0.284-1.228-0.45
	c-1.418-0.579-2.89-1.023-4.28-1.677c-2.967-1.75-4.533-0.518-5.272,2.47c-0.715,1.938-1.252,3.948-2.246,5.781
	C288.389,150.843,287.87,151.984,286.421,151.935z"/>
<path fill-rule="evenodd" clip-rule="evenodd" fill="#375A64" d="M273.479,70.723c-0.03,37.294-0.062,74.589-0.092,111.883
	c-0.026,4.006-3.073,7.092-3.365,11.04c-0.058,0.783-0.808,1.444-1.762,1.378c-0.948-0.066-1.37-0.736-1.521-1.61
	c-0.169-0.977,0.114-1.953-0.01-2.936c0.024-3.002,0.095-6,0.03-8.996c-0.701-32.134,1.067-64.241,1.006-96.368
	c-0.004-1.999,0.046-3.999-0.071-5.994c-0.521-8.888-4.361-12.614-13.201-12.809c-1.998-0.044-4.006,0.11-5.993-0.037
	c-4.197-0.309-7.043,0.996-8.025,5.509c-0.664,3.046-3.227,4.167-6.055,4.304c-7.985,0.385-15.98,0.35-23.967,0.025
	c-3.365-0.137-5.711-1.919-6.454-5.247c-0.767-3.428-2.975-4.506-6.162-4.53c-4.496-0.035-8.996-0.159-13.487,0.031
	c-6.029,0.254-9.505,3.505-10.301,9.456c-0.31,2.316-0.19,4.656-0.19,6.986c-0.005,41.799,0.009,83.598-0.028,125.396
	c-0.002,2.949,0.545,6.033-1.289,8.741c-1.884,1.174-3.708,1.349-5.421-0.321c0.03-32.951,0.061-65.903,0.091-98.854
	c0.112-13.225,0.486-26.455,0.245-39.673c-0.161-8.842,2.761-15.435,10.964-19.278c6.611-1.102,13.261-0.527,19.902-0.489
	c19.115,0.108,38.232,0.149,57.348,0.232C265.323,58.604,269.773,61.658,273.479,70.723z"/>
<path fill-rule="evenodd" clip-rule="evenodd" fill="#F44F5B" d="M275.204,254.088c-0.492-3.466,0.712-7.234-1.85-10.33
	c-0.414-0.305-0.707-0.699-0.885-1.18c-0.234-4.123-0.005-8.293-0.527-11.262c0.704,1.742-0.746,4.354-1.202,7.045
	c-0.297,2.554-1.001,5.02-1.544,7.521c-1.982,6.585-3.018,13.394-4.753,20.038c-1.063,3.014-0.872,6.822-4.97,7.938
	c-2.489,0.267-4.979,0.511-7.082-1.315c-0.99-1.153-0.81-2.471-0.527-3.802c0.063-0.515,0.154-1.026,0.244-1.538
	c0.126-0.768,0.299-1.525,0.49-2.281c1.191-6.92,2.156-13.879,3.52-20.766c0.307-1.757,1.075-3.455,0.875-5.217
	c-1.146-0.708-2.109-0.104-3.068-0.045c-3.93,0.24-7.276-0.793-9.289-4.426c-1.943-3.503-1.781-7.071,0.531-10.324
	c2.39-3.365,6.313-4.672,9.707-3.303c4.814,1.942,6.672,0.066,8.121-3.894c0.223-0.61,0.82-1.026,1.4-1.373
	c0.705-0.271,1.383-0.135,2.051,0.132c2.254,0.863,3.462,3.455,6.099,3.691c1.97,1.133,4.01,1.001,6.079,0.32
	c3.312-0.479,5.531-2.189,5.866-5.643c0.242-2.494,1.637-3.408,3.89-3.545c1.101,0.41,2.838-1.208,3.366,1.039
	c8.701,4.112,14.091,12.283,22.058,18.348c1.15-7.012,2.201-13.457,2.405-20.023c-0.677-0.941-0.452-1.725,0.424-2.393
	c2.262-0.496,4.518-0.804,6.71,0.301c1.771,2.769,0.755,5.813,0.709,8.707c-0.097,6.139-0.619,12.271-0.758,18.41
	c-0.083,3.693-1.448,6.422-4.812,8.014c-3.577,1.693-6.874,0.879-9.71-1.58c-3.486-3.024-6.791-6.258-11.22-10.372
	c0.479,7.604-2.882,14.689,5.02,19.12c-1.231,2.275-2.627,1.138-4.064,0.238c-2.103-1.314-4.176-2.699-6.378-3.827
	c-7.032-3.604-11.966-1.999-15.587,4.944C276.089,252.33,275.649,253.211,275.204,254.088z"/>
<path fill-rule="evenodd" clip-rule="evenodd" fill="#D73E48" d="M167.119,216.625c1.655,0.033,3.31,0.066,4.965,0.1
	c3.688,0.92,2.726,4.052,2.749,6.393c0.137,13.414,0.121,26.832,0.056,40.246c-0.526,3.14,0.739,6.49-1.091,9.479
	c-0.186,1.973-0.813,3.273-3.254,3.063c-3.052-0.262-6.133-0.188-9.201-0.26c-0.954-2.24-0.079-4.568-0.32-6.845
	c-0.156-1.475-0.008-3.239-2.029-3.403c-2.045-0.165-2.127,1.526-2.45,3.027c-0.539,2.506,0.149,4.835,0.711,7.201
	c-4.969,0.005-9.937,0.009-14.905,0.013c1.268-1.944,0.951-4.136,0.954-6.269c0.024-17.203,0.037-34.408,0.054-51.611
	c1.535-0.943,3.23-0.447,4.843-0.464c7.146-0.072,7.151-0.039,8.614,6.848c0.242,1.144,0.353,2.446,1.805,2.626
	c1.802,0.225,1.988-1.287,2.473-2.521c1.006-2.568-0.074-6.327,4.011-7.176C165.774,216.922,166.446,216.773,167.119,216.625z"/>
<path fill-rule="evenodd" clip-rule="evenodd" fill="#1A3036" d="M291.746,211.57c-1.204-0.016-2.408-0.029-3.612-0.044
	c-0.987-0.651-2.456,0.228-3.257-1.023c-0.271-0.706-0.242-1.406,0.038-2.101c5.165-6.936,5.615-13.386,1.19-20.432
	c-2.366,1.347-2.438,4.22-3.991,6.003c-1.102,1.265-2.21,2.522-3.729,3.257c-1.758,0.851-2.26,1.869-1.778,3.951
	c1.372,5.941,1.954,12.016,2.19,18.113c0.02,0.518-0.22,0.941-0.701,1.194c-2.216,1.919-4.14,1.278-5.915-0.673
	c-2.042-0.922-2.767-4.346-5.936-3.127c-0.481-0.076-0.964-0.152-1.445-0.228c-0.384-2.416-0.631-4.461-3.759-5.513
	c-3.587-1.207-4.332-7.946-1.386-10.432c2.052-1.73,2.974-3.874,3.857-6.231c0.778-2.075,1.825-4.133,4.736-2.803
	c0.051,0.903-1.171,1.679,0.553,3.618c0.214-5.156,1.809-9.102,4.584-12.495c0.956-0.626,1.912-1.252,2.868-1.878
	c5.118-1.471,9.311,1.459,13.479,3.367c3.146,1.441,3.435,5.146,2.395,8.321c-0.83,2.534-0.78,4.993,0.158,7.245
	C294.014,203.809,293.542,207.676,291.746,211.57z"/>
<path fill-rule="evenodd" clip-rule="evenodd" fill="#F3525D" d="M158.263,149.816c1.317,4.27-1.756,7.766-2.07,11.749
	c-0.488,1.318-0.768,3.323-2.803,2.042c-2.645-1.664-5.718-0.902-8.424-1.957c-1.503-2.813-0.293-5.661,0.357-8.273
	c1.1-4.415-0.002-7.68-3.148-10.808c-1.945-1.934-4.256-3.827-4.719-6.87c1.458-3.874,5.098-5.867,8.297-7.133
	c2.869-1.135,3.915,3.082,5.652,5.059c0.505,1.049,1.229,2.054,1.49,3.143c0.381,1.587,0.605,2.741,2.328,1.061
	c0.666,0.65,1.334,1.301,2,1.951C158.632,143.016,156.978,146.568,158.263,149.816z"/>
<path fill-rule="evenodd" clip-rule="evenodd" fill="#A12C34" d="M356.226,275.676c0.289-1.643,0.577-3.287,0.865-4.93
	c-2.597-4.297-0.049-8.673-0.207-13.008c-0.197-4.186,1.029-8.236,1.165-12.396c0.05-1.518,0.577-2.946,2.06-3.765
	c1.746-0.339,3.497-0.762,5.174,0.269c1.388,10.033,2.712,20.076,4.203,30.095c0.421,2.821,0.187,4.366-3.308,3.978
	C362.892,275.553,359.546,275.734,356.226,275.676z"/>
<path fill-rule="evenodd" clip-rule="evenodd" fill="#385B65" d="M353.94,187.832c-8.659-0.001-8.66-0.001-7.634-8.361
	c0.101-0.821,0.21-1.642,0.337-2.459c1.175-7.59,1.189-7.33,8.865-7.725c4.219-0.217,6.235,0.911,6.009,5.303
	c-0.067,1.297,0.271,2.623,0.482,3.926C363.521,187.834,363.525,187.832,353.94,187.832z"/>
<path fill-rule="evenodd" clip-rule="evenodd" fill="#F44F5B" d="M360.226,241.854c-0.73,5.354-1.461,10.71-2.19,16.064
	c-5.313,0.739-10.083-0.655-14.44-3.673c3.032-8.241,0.594-11.203-9.835-11.951c0.08-0.299,0.269-0.533,0.57-0.704
	C342.981,239.805,351.619,239.242,360.226,241.854z"/>
<path fill-rule="evenodd" clip-rule="evenodd" fill="#F5F6F5" d="M360.189,240.792c-2.649,0.08-4.02-0.62-3.91-3.6
	c0.12-3.351,0.19-6.91-4.51-7.45c-8.57-0.98-10.41-0.24-12.17,5.68c-0.88,2.97-1.95,5.44-5.271,6.17
	c1.271,0.01,2.54,0.03,3.811,0.04c0.25,0,0.5,0,0.75,0.01c6.93,0.07,13.86,0.13,20.8,0.2c0.18,0.01,0.36,0.01,0.54,0.01
	c1.68,0,3.37,0,5.05-0.01C363.899,240.021,361.899,240.752,360.189,240.792z M348.479,231.082c7.44,0,6.47,7.72,5.83,8.17
	c-1.17,0.82-12.46,0.94-13.46-0.18C340.85,236.502,341.659,231.082,348.479,231.082z"/>
<path fill-rule="evenodd" clip-rule="evenodd" fill="#A23139" d="M137.456,135.699c2.973,3.27,5.973,6.517,8.91,9.82
	c1.511,1.7,0.971,3.742,0.621,5.664c-0.643,3.537-1.634,7.023-1.348,10.676c1.049,0.986,1.463,2.151,1.003,3.563
	c-3.778,2.51-4.709,2.4-5.534-0.645c0.066-0.662,0.031-1.354,0.217-1.982c2.163-7.321,0.945-13.754-5.111-18.783
	C131.915,140.443,133.207,137.897,137.456,135.699z"/>
<path fill-rule="evenodd" clip-rule="evenodd" fill="#395A64" d="M317.282,207.602c-0.357,0.764-0.715,1.529-1.073,2.293
	c-9.271-0.391-9.265-0.389-7.394-9.347c0.271-1.303,0.426-2.63,0.698-3.933c1.318-6.289,3.743-7.127,9.066-3.342
	c2.378,1.689,0.287,3.619,0.593,5.396C314.36,200.762,317.702,204.58,317.282,207.602z"/>
<path fill-rule="evenodd" clip-rule="evenodd" fill="#F44D5A" d="M165.102,217.07c-2.649,2.107-2.322,5.346-2.628,8.109
	c-0.309,2.799-1.227,3.625-3.935,3.639c-3.28,0.016-3.309-1.941-3.229-4.236c0.033-0.991-0.087-1.995,0.028-2.975
	c0.368-3.126-1.128-4.098-4.05-3.906c-2.635,0.172-5.288,0.049-7.933,0.057c-0.028-0.228-0.044-0.455-0.047-0.685
	C150.573,217.072,157.837,217.071,165.102,217.07z"/>
<path fill-rule="evenodd" clip-rule="evenodd" fill="#E5E5E5" d="M77.411,239.748c-1.203,0.115-2.408,0.23-3.611,0.345
	c-1.122,0.872-2.357,0.837-3.632,0.458c-1.38-0.271-1.017-3.889-4.14-1.698c-1.045,0.733-3.151-2.604-2.727-5.179
	c0.313-0.758,0.533-1.574,0.959-2.263c0.887-1.433-2.335-4.097,0.71-4.312c2.172-0.154,2.269,2.762,2.377,4.756
	c0.018,0.318,0.156,0.631,0.426,1.658c1.043-1.291,1.749-2.396,2.684-3.25c0.79-0.723,1.866-0.629,2.741,0.033
	c0.86,0.65,1.453,1.768,0.871,2.598c-1.889,2.695-1.615,3.947,1.947,4.066C77.547,237.012,77.198,238.675,77.411,239.748z"/>
<path fill-rule="evenodd" clip-rule="evenodd" fill="#EDB3B7" d="M304.3,161.774c-3.447-1.047-6.971-1.911-9.941-4.111
	c0.499-4.07-3.249-5.239-5.218-7.632c-0.137-0.485-0.078-0.938,0.201-1.362c3.382-1.341,6.254,0.784,8.868,1.995
	c4.519,2.092,10.206,2.137,13.341,6.906c0.1,0.876-0.333,1.397-1.123,1.676c-4.232-1.47-8.926-1.431-12.795-4.115
	c-0.691-0.011-0.08,0.961-0.091,0.294c-0.004-0.267,0.134-0.337,0.408-0.201c1.905,0.95,3.647,2.274,5.857,2.52
	c1.271,0.141,3.104-0.263,3.409,1.292C307.587,160.917,305.583,161.16,304.3,161.774z"/>
<path fill-rule="evenodd" clip-rule="evenodd" fill="#CECFCE" d="M331.576,183.861c2.015-2.326,1.751-5.023,1.696-7.666
	c-0.167-8.024,3.997-13.822,10.499-17.457c7.211-4.03,14.841-4.096,23.023,1.818c-4.808-0.858-8.022-2.68-11.758-2.961
	c-10.331-0.778-20.715,7.873-20.71,20.158C334.329,181.799,334.253,181.799,331.576,183.861z"/>
<path fill-rule="evenodd" clip-rule="evenodd" fill="#C68978" d="M317.282,207.602c-0.157-0.625-0.128-1.408-0.502-1.85
	c-3.614-4.258-3.09-5.864,2.393-7.082c3.398,2.127,4.505,5.3,4.17,9.132C321.285,208.865,319.283,208.264,317.282,207.602z"/>
<path fill-rule="evenodd" clip-rule="evenodd" fill="#BEC2C2" d="M63.302,233.674c0.828,1.572,2.344,2.732,2.35,4.516
	c2.443,0.324,0.936-2.889,2.3-2.264c0.708,0.325,3.235,1.771,1.388,3.852c-5.887,2.608-11.838,3.887-18,0.883
	c-0.055-0.299-0.074-0.602-0.063-0.906c3.377,0,6.753,0,10.329,0c-0.622-2.829-4.273-4.193-2.616-6.816
	C60.183,231.047,61.791,233.587,63.302,233.674z"/>
<path fill-rule="evenodd" clip-rule="evenodd" fill="#9C9292" d="M141.108,164.777c1.799,2.299,3.613,1.005,5.428,0.025
	c2.221,0.055,4.392,0.193,4.928,3.009c-1.352,3.465-4.042,4.874-7.353,3.571C141.453,170.337,139.733,168.057,141.108,164.777z"/>
<path fill-rule="evenodd" clip-rule="evenodd" fill="#9F2E37" d="M310.39,158.893c0.266-0.403,0.532-0.806,0.798-1.208
	c-0.321-0.825-0.077-1.598,0.206-2.373c0.131-0.396,0.286-0.781,0.444-1.167c0.388-1.011,0.618-2.071,0.98-3.093
	c0.593-1.673,1.434-3.045,3.528-2.87c0.772,0.248,1.26,0.705,1.164,1.588c-0.379,1.669-0.759,3.339-1.138,5.009
	c-1.021,2.234-2.119,4.438-3.043,6.711c-1.187,2.92-2.896,3.301-5.262,1.333C308.17,161.116,308.968,159.82,310.39,158.893z"/>
<path fill-rule="evenodd" clip-rule="evenodd" fill="#F1D5D6" d="M151.464,167.812c-1.644-1.004-3.287-2.009-4.929-3.011
	c-0.573-0.895-1.108-1.803-0.896-2.941c2.512-1.967,5.106-1.534,7.288,0.292c1.648,1.38,2.427,1.012,3.265-0.587
	C157.152,165.566,153.169,165.826,151.464,167.812z"/>
<path fill-rule="evenodd" clip-rule="evenodd" fill="#ED5560" d="M310.39,158.893c-0.291,1.595-0.728,3.104-2.321,3.93
	c-1.257-0.35-2.513-0.699-3.769-1.049c0.658-0.853,1.316-1.705,2.224-2.881c-4.143,0.32-7.217-1.222-9.374-4.575
	C301.213,156.926,306.41,156.12,310.39,158.893z"/>
<path fill-rule="evenodd" clip-rule="evenodd" fill="#D2D2D1" d="M342.295,192.781c6.552,5.066,13.692,4.877,22.201,1.373
	c-6.029,5.342-15.857,4.726-23.187-0.402C341.505,193.293,341.833,192.97,342.295,192.781z"/>
<path fill-rule="evenodd" clip-rule="evenodd" fill="#CBCBCB" d="M342.295,192.781c-0.329,0.323-0.657,0.646-0.985,0.971
	c-3.313-3.436-7.104-5.234-11.935-3.496c-0.844,0.303-1.793,0.381-1.731-0.816c0.043-0.852,0.83-1.047,1.795-1.167
	C334.514,187.643,339.098,188.161,342.295,192.781z"/>
<path fill-rule="evenodd" clip-rule="evenodd" fill="#F2D2D5" d="M158.263,149.816c-4.172-2.95-0.375-6.724-1.039-10.036
	C159.356,142.94,162.022,146.045,158.263,149.816z"/>
<path fill-rule="evenodd" clip-rule="evenodd" fill="#F17682" d="M155.224,137.829c-1.883,1.359-0.027,3.914-2.314,5.902
	c-0.544-3.654-1.023-6.879-1.504-10.105C152.87,134.852,154.354,136.062,155.224,137.829z"/>
<path fill-rule="evenodd" clip-rule="evenodd" fill="#F0545F" d="M289.383,149.659c3.086,1.222,4.983,3.682,6.468,6.464
	c0.831,1.556-0.549,1.446-1.491,1.54c-1.365-1.722-2.729-3.443-4.094-5.165C288.806,151.915,288.307,151.032,289.383,149.659z"/>
<path fill-rule="evenodd" clip-rule="evenodd" fill="#D0727B" d="M289.383,149.659c0.295,0.948,0.59,1.895,0.884,2.841
	c-1.642,0.524,0.659,3.027-1.268,2.98c-1.876-0.045-2.663-1.665-2.578-3.545c0.58-0.771,1.16-1.543,1.74-2.315
	c0.452-0.438,0.863-0.403,1.232,0.106L289.383,149.659z"/>
<path fill-rule="evenodd" clip-rule="evenodd" fill="#F7F7F6" d="M343.595,254.246c4.813,1.225,9.628,2.449,14.44,3.674
	c-0.314,4.273-0.629,8.548-0.943,12.824c-8.341-0.874-16.307-3.287-24.224-5.902C336.733,261.604,340.761,258.528,343.595,254.246z"
	/>
<path fill-rule="evenodd" clip-rule="evenodd" fill="#CDB6B7" d="M330.737,269.746c-0.593,0.67-1.306,1.057-2.229,0.949
	c-2.497-3.357,0.58-3.699,2.519-4.657C330.93,267.274,330.833,268.51,330.737,269.746z"/>
<path fill-rule="evenodd" clip-rule="evenodd" fill="#D4C7C7" d="M303.759,270.617c-1.83,1.332-3.424,3.104-5.922,3.203
	C299.86,272.844,299.724,267.873,303.759,270.617z"/>
<path fill-rule="evenodd" clip-rule="evenodd" fill="#A12D34" d="M51.339,240.66c6-0.294,12-0.588,17.999-0.883
	c1.483,0.104,2.966,0.209,4.456,0.314c0.979,0.915,2.195,0.576,3.318,0.602c8.213,0.178,8.209,0.167,8.206,8.6
	c-0.004,8.787-0.001,17.575,0,26.363c-10.263,0.051-20.526,0.025-30.786,0.205c-2.647,0.046-3.381-0.844-3.344-3.412
	C51.343,261.854,51.306,251.258,51.339,240.66z"/>
<path fill-rule="evenodd" clip-rule="evenodd" fill="#375A64" d="M173.798,272.842c-0.387-3.084-0.439-6.166,0.07-9.243
	c9.638,4.606,20.089,1.661,30.062,3.218c6.245,1.123,12.538,0.395,18.804,0.5c8.101,0.136,16.205-0.002,24.308,0.057
	c2.106,0.015,4.368-0.349,6.004,1.566c-0.314,0.918-0.823,1.811-0.37,2.83c0.459,2.651-1.334,2.859-3.217,2.953
	c-1.747,0.086-3.562-0.187-5.094,0.996c-20.405,0.041-40.811,0.053-61.217,0.152C179.639,275.889,176.806,274.18,173.798,272.842z"
	/>
<path fill-rule="evenodd" clip-rule="evenodd" fill="#385B65" d="M268.082,246.014c0.44-2.661,0.88-5.322,1.32-7.982
	c1.518-1.604,2.237-0.266,2.888,0.857c0.671,1.158,0.246,2.626,0.911,3.816c0.051,0.352,0.102,0.701,0.153,1.053
	c-0.106,5.301-0.099,10.608-0.346,15.903c-0.419,8.979-6.229,15.321-14.471,16.017c-1.063-1.295,0.071-2.006,0.754-2.836
	c3.92-0.74,2.303-4.729,3.98-6.783C267.792,260.076,266.837,252.781,268.082,246.014z"/>
<path fill-rule="evenodd" clip-rule="evenodd" fill="#F24E5A" d="M157.254,275.625c-5.495-2.533-1.034-6.858-1.642-10.27
	c-0.375-2.104,2.428-1.453,3.951-1.572c1.829-0.145,2.832,0.746,2.717,2.623c-0.19,3.09,0.743,6.299-0.938,9.238
	C159.979,275.639,158.617,275.632,157.254,275.625z"/>
<path fill-rule="evenodd" clip-rule="evenodd" fill="#B58074" d="M259.292,272.842c-0.252,0.945-0.504,1.89-0.756,2.835
	c-4.723,0.015-9.447,0.028-14.172,0.042c0.961-2.012,2.822-2.048,4.663-2.127c1.487-0.064,3.063,0.05,3.646-1.823
	C254.701,273.234,257.088,272.478,259.292,272.842z"/>
<path fill-rule="evenodd" clip-rule="evenodd" fill="#FDFDFD" d="M148.299,64.651c0.026-5.515,3.16-8.832,8.405-8.898
	c5.24-0.066,9.543,4.215,9.49,9.442c-0.036,3.596-4.831,8.476-8.393,8.541C152.542,73.832,148.274,69.752,148.299,64.651z"/>
<path fill-rule="evenodd" clip-rule="evenodd" fill="#FDFDFD" d="M327.46,101.741c5.214,0.064,7.841,2.42,7.788,6.114
	c-0.062,4.24-2.697,6.887-6.862,6.894c-3.661,0.006-7.34-3.493-7.018-6.889C321.767,103.664,324.379,101.817,327.46,101.741z"/>
<path fill-rule="evenodd" clip-rule="evenodd" fill="#FBFBFB" d="M301.305,103.819c-8.303-1.372-16.607-2.778-24.928-4.091
	c-1.82-0.287-2.024-1.412-1.974-2.847c0.076-2.176,1.336-1.608,2.757-1.367c8.795,1.492,17.607,2.877,26.416,4.286
	c1.476,0.236,2.876,1,2.459,2.504C305.337,104.823,302.937,103.323,301.305,103.819z"/>
<path fill-rule="evenodd" clip-rule="evenodd" fill="#F0545F" d="M289.394,149.726c-0.41-0.035-0.821-0.069-1.232-0.105
	c0.765-1.913,1.529-3.825,2.294-5.737c6.319-0.657,12.417,0.123,18.23,2.787c2.244,1.028,4.822,1.721,4.633,4.995
	c-0.217,0.989-0.434,1.978-0.651,2.967c-6.147-3.028-12.443-5.641-19.229-6.885c-0.642-0.179-0.391,0.958-0.328,0.293
	c0.022-0.231,0.164-0.272,0.438-0.244c5.102,0.534,9.567,3.067,14.357,4.577c1.747,0.551,3.502,1.195,4.113,3.237
	c-0.276,0.692-0.554,1.384-0.83,2.074C304.303,153.992,297.334,150.529,289.394,149.726z"/>
<path fill-rule="evenodd" clip-rule="evenodd" fill="#E7A6AD" d="M313.318,151.666c-4.454-5.251-10.463-6.666-16.889-6.223
	c-2.391,0.165-4.048-0.827-5.975-1.559c1.364-5.761,1.674-5.898,6.806-3.021c0,2.25-1.701,2.002-3.133,2.252
	c2.399,0.107,4.73-1.725,7.179-0.376l-0.016-0.034c2.598,1.278,5.243,2.432,8.088,3.058c2.016,0.619,4.031,1.238,6.047,1.857
	c0.879-0.104,1.154,0.274,0.876,1.096C313.533,147.905,314.813,151.188,313.318,151.666z"/>
<path fill-rule="evenodd" clip-rule="evenodd" fill="#F5F5F4" d="M336.59,147.655c-7.294-0.087-14.379-1.918-21.525-3.206
	c-0.794-0.143-1.512-0.805-1.253-1.811c0.197-0.767,0.941-0.929,1.583-0.806c7.16,1.369,14.313,2.777,21.467,4.175
	C336.771,146.557,336.681,147.106,336.59,147.655z"/>
<path fill-rule="evenodd" clip-rule="evenodd" fill="#F5F5F4" d="M316.302,148.715c-0.293-0.365-0.586-0.729-0.877-1.095
	c7.475-0.726,14.324,1.985,21.329,4.063c-6.585,1.101-12.89-0.675-19.243-1.913C317.108,149.418,316.705,149.067,316.302,148.715z"
	/>
<path fill-rule="evenodd" clip-rule="evenodd" fill="#E15D6A" d="M301.307,142.738c-2.7-0.14-5.232,1.853-8.225,0.686
	c1.278-1.296,3.31-1.009,4.181-2.562C298.651,141.397,300.271,141.439,301.307,142.738z"/>
<path fill-rule="evenodd" clip-rule="evenodd" fill="#C1797E" d="M309.379,145.762c-3.156,0.199-5.845-0.841-8.088-3.058
	C304.329,142.817,306.875,144.235,309.379,145.762z"/>
<path fill-rule="evenodd" clip-rule="evenodd" fill="#C9424C" d="M110.438,270.414c0-15.777,0-31.556,0-47.334
	c0.17-0.001,0.341-0.002,0.512-0.004c0,15.85,0,31.697,0,47.547C110.779,270.553,110.608,270.483,110.438,270.414z"/>
<path fill-rule="evenodd" clip-rule="evenodd" fill="#FAFAFA" d="M203.417,268.053c-6.078-0.049-12.16-0.26-18.231-0.092
	c-4.547,0.125-8.411-1.058-11.568-4.363c-0.109-13.866-0.18-27.734-0.381-41.6c-0.025-1.79,1.087-4.066-1.4-5.273
	c0.124-46.795,0.215-93.591,0.408-140.386c0.031-7.292,4.668-11.642,12.026-11.739c4.995-0.065,9.995,0.115,14.987-0.006
	c3.685-0.089,5.785,1.234,5.564,5.175c-0.213,3.804,1.908,4.866,5.3,4.842c7.993-0.055,15.988-0.034,23.98,0.085
	c3.421,0.051,5.424-1.039,5.321-4.827c-0.104-3.824,1.969-5.301,5.689-5.118c3.488,0.172,6.993,0.021,10.49,0.069
	c8.802,0.119,13.196,4.445,13.159,13.263c-0.095,22.647-0.3,45.294-0.457,67.942c-0.104,15.153-0.203,30.307-0.305,45.46
	c-1.685-0.168-3.033,0.517-3.54,2.071c-1.123,3.445-0.775,7.823-6.03,8.338c-0.646,0.063-0.556,1.49-0.12,1.664
	c3.236,1.295-2.204,6.926,3.283,6.754c6.045-0.188,4.43,2.914,2.963,6.145c-2.248,2.41-2.976,5.48-3.758,8.961
	c-2.539-1.252-4.088-3.937-7.145-3.939c-2.803-0.002-5.373,0.415-7.23,2.602c-2.82,3.32-3.008,6.984-0.517,10.539
	c2.622,3.742,6.606,4.219,12.47,1.53c-0.221,2.73-0.026,5.261-1.322,7.613c-0.762,0.661-1.652,1.003-2.635,1.239
	c-2.174,0.525-5.727-0.713-5.699,3.009c0.028,3.948-2.312,8.763,2.736,11.52c2.943,1.607,2.178,3.993,1.713,6.4
	c-0.047,0.635-0.092,1.27-0.139,1.904c-9.408,0.909-18.84,0.269-28.259,0.366C217.656,268.271,210.532,268.473,203.417,268.053z"/>
<path fill-rule="evenodd" clip-rule="evenodd" fill="#C58875" d="M278.097,220.489c-0.129-5.228-1.253-10.39-2.139-15.458
	c-0.921-5.273-1.236-8.834,4.586-11.004c1.906-0.71,1.9-3.715,2.953-5.563c1.129-1.982,2.615-3.049,4.624-0.762
	c3.935,4.481,2.282,17.484-2.714,21.052c-1.415,0.979-2.741,0.058-4.267-0.212c1.652,0.531,3.097,1.122,4.336,2.12
	c0.89,0.288,1.778,0.577,2.663,0.864c-1.389,0.311-2.428,0.244-2.396,2.591C285.803,218.678,283.028,220.621,278.097,220.489z"/>
<path fill-rule="evenodd" clip-rule="evenodd" fill="#E2E0E0" d="M253.419,265.929c-0.244-2.459,0.611-5.577-3.712-5.345
	c-1.497,0.08-2.308-1.223-2.329-2.689c-0.059-3.943-0.037-7.889-0.019-11.834c0.011-2.053,1.437-2.303,3.04-2.299
	c2.301,0.006,4.604,0,6.904-0.002C256.157,251.176,255.306,258.643,253.419,265.929z"/>
<path fill-rule="evenodd" clip-rule="evenodd" fill="#B58074" d="M203.666,268.053c16.538-0.073,33.077-0.146,49.614-0.221
	c-0.078,0.369-0.155,0.738-0.234,1.107c-14.684-0.127-29.366-0.233-44.048-0.408C207.224,268.51,205.368,269.018,203.666,268.053z"
	/>
<path fill-rule="evenodd" clip-rule="evenodd" fill="#ECECEB" d="M268.082,246.014c0.045,3.801,0.237,7.607,0.094,11.402
	c-0.138,3.64-1.604,6.705-4.903,8.642C264.354,259.251,265.91,252.559,268.082,246.014z"/>
<path fill-rule="evenodd" clip-rule="evenodd" fill="#CE3F4B" d="M273.201,242.705c-1.662-1.237-0.638-4.656-3.799-4.676
	c0.743-2.801,1.487-5.604,2.318-8.738C274.041,233.807,273.966,238.218,273.201,242.705z"/>
<path fill-rule="evenodd" clip-rule="evenodd" fill="#F2747D" d="M252.131,233.393c4.971-4.432,5.173-4.932-1.137-7.069
	c3.218,0.054,5.956,0.689,6.31,2.679C257.06,231.646,253.815,231.966,252.131,233.393z"/>
<path fill-rule="evenodd" clip-rule="evenodd" fill="#CC4A54" d="M266.246,216.689c4.981-4.66,4.455,1.139,5.936,3.127
	C268.96,221.133,268.518,217.176,266.246,216.689z"/>
<path fill-rule="evenodd" clip-rule="evenodd" fill="#B7634A" d="M285.477,210.663c-2.161,0.098-4.124-0.276-5.566-2.29
	c2.037-1.273,3.755-0.271,5.497,0.383C285.431,209.391,285.453,210.027,285.477,210.663z"/>
<path fill-rule="evenodd" clip-rule="evenodd" fill="#5E7D87" d="M358.769,173.563c-3.635,4.219-5.387,4.213-9.896-0.618
	C352.685,174.921,355.693,175.656,358.769,173.563z"/>
<g id="XMLID_1_">
	<g>
		<path fill="#F54F5B" d="M144.85,244.082c0.12,8.32,0.09,16.63-0.01,24.95c-0.03,2.45,0.2,5.11-2.49,6.6
			c-19.01,0.01-38.02,0.02-57.03,0.02c-1.75-1.91-1.49-4.31-1.51-6.61c-0.06-7.13-0.1-14.27,0-21.4c0.06-3.74-1.33-5.5-5.21-5.44
			c-2.01,0.02-4.47,0.39-5.45-2.32c1.38-1.39,2.81-1.11,4.26-0.13c0.49,0.05,0.99,0.14,1.48,0.15c6.52,0.16,6.47,0.15,6.52-6.21
			c0.05-5.78,0.23-11.56,0.35-17.34c8.55,0.1,17.09,0.2,25.63,0.3c10.64,0.14,21.28,0.28,31.92,0.42c0.49,0.45,0.85,0.98,1.08,1.61
			C145.43,227.132,144.729,235.612,144.85,244.082z"/>
		<path fill="#47A32C" d="M117.24,176.912c1.56,2.52-0.26,3.94-2.07,4.52c-0.03,0.01-0.05,0.02-0.08,0.03
			c0.02-1.13-0.76-1.87-1.89-1.84c-1.1,0.02-1.91,0.36-2.49,0.92c-0.07-0.21-0.13-0.46-0.17-0.73c0.05-0.04,0.1-0.07,0.15-0.11
			c0.04,0.02,0.08,0.05,0.12,0.08c1.91-0.01,3.3-0.76,3.69-2.93C115.41,176.872,116.33,176.892,117.24,176.912z"/>
		<path fill="#47A32C" d="M118.51,185.882c-0.75,4.74-3,1.92-4.89,0.97c-0.01-0.36-0.07-0.76-0.14-1.16
			c0.77-0.88,1.16-2.12,1.47-3.37C116.83,182.162,117.569,184.402,118.51,185.882z"/>
		<path fill="#47A32C" d="M115.649,170.282c0.84,2.87-0.62,4.33-3.19,4.89c-0.26,0.06-0.56,0.13-0.86,0.17
			c-0.65-0.51-1.3-1.05-2.01-1.4c0.06-1.98,2.23-2.64,3.56-3.8C113.979,170.192,114.819,170.232,115.649,170.282z"/>
		<path fill="#47A32C" d="M113.2,179.622c1.13-0.03,1.91,0.71,1.89,1.84c-1.41,0.46-3.62,1.43-4.38-0.92
			C111.29,179.982,112.1,179.642,113.2,179.622z"/>
		<path fill="#E4E4E4" d="M115.089,181.462c0,0.17-0.02,0.36-0.07,0.55c-0.02,0.1-0.05,0.2-0.07,0.31
			c-0.19,0.01-0.39,0.05-0.61,0.12c-1.42,0.45-1.1,1.89-0.86,3.25c-0.57,0.67-1.36,1.13-2.48,1.24c0.18-0.13,0.35-0.27,0.51-0.38
			c0.71-0.5,0.38-1.17,0.03-1.73c-0.35-0.57-1.01-0.98-1.77-1.24c0.1,0,0.2,0,0.31-0.01c0.61-0.74,0.54-1.46-0.04-2.15
			c0.17-0.34,0.39-0.64,0.67-0.88C111.47,182.892,113.68,181.922,115.089,181.462z"/>
		<path fill="#47A32C" d="M114.339,182.442c0.22-0.07,0.42-0.11,0.61-0.12c-0.31,1.25-0.7,2.49-1.47,3.37
			C113.24,184.332,112.919,182.892,114.339,182.442z"/>
		<path fill="#E5DBDA" d="M114.5,176.842v0.01c-1.27,0.95-2.54,1.9-3.81,2.85c-0.85-0.64-1.88-0.7-2.93-0.71
			c-0.41-1.19-1.48-0.98-2.79-0.28c-0.62-0.22-1.18-0.62-1.63-1.33c2.12,0.59,2.26-1.36,2.71-2.89c0.29-0.25,0.57-0.52,0.85-0.78
			c1.04-0.32,1.9-0.15,2.69,0.23c-0.01,0.13,0,0.27,0.01,0.41c0.1,1.09,1.09,1.13,2,0.99
			C112.49,176.042,113.399,176.712,114.5,176.842z"/>
		<path fill="#47A32C" d="M110.689,179.702c1.27-0.95,2.54-1.9,3.81-2.85c-0.39,2.17-1.78,2.92-3.69,2.93
			C110.77,179.752,110.729,179.722,110.689,179.702z"/>
		<path fill="#47A32C" d="M111.6,163.422c1,0.36,0.72,1.37,0.32,2.09c-0.74,1.29-1.66,2.04-2.76,2.21c-0.23-1-1.1-1.91-2.63-2.82
			C107.79,163.032,109.609,162.702,111.6,163.422z"/>
		<path fill="#47A32C" d="M111.54,184.822c0.35,0.56,0.68,1.23-0.03,1.73c-0.16,0.11-0.33,0.25-0.51,0.38
			c-0.04,0-0.08,0.01-0.12,0.01c-2.16,0.15-1.16-1.89-1.51-3.01c0.01-0.11,0.02-0.22,0.04-0.33c0.11-0.01,0.23-0.01,0.35-0.02
			c0,0,0,0,0.01,0C110.53,183.842,111.189,184.252,111.54,184.822z"/>
		<path fill="#7F6132" d="M112.04,214.962c0,0.08-0.43,1.12-0.65,1.69c-8.52-2.44-17.07-1.95-25.63-0.3h-0.01
			c0.94-3.57,1.68-7.14,0.35-10.79c-0.22-0.61-0.41-1.24-0.62-1.87c-0.48-8.74-0.48-8.75,8.78-8.73c0.09,0,0.18,0,0.27,0
			c0.27,0.75,0.68,1.49,1.29,2.22c3.81,0.27,4.7-0.76,4.73-2.18c1.23,0.02,2.46,0.03,3.69,0.04c2.3,0.29,4.74-0.71,6.92,0.75
			c-0.79,2.93-1.07,5.92-0.94,8.95C110.05,208.272,106.41,212.432,112.04,214.962z"/>
		<path fill="#1E160B" d="M111.39,216.652c-8.54-0.1-17.08-0.2-25.63-0.3C94.319,214.702,102.87,214.212,111.39,216.652z"/>
		<path fill="#98D02E" d="M111.6,175.342c-0.91,0.14-1.9,0.1-2-0.99c-0.01-0.14-0.02-0.28-0.01-0.41
			C110.3,174.292,110.95,174.832,111.6,175.342z"/>
		<path fill="#47A32C" d="M110.879,186.942c0.04,0,0.08-0.01,0.12-0.01c-0.54,0.41-1.14,0.83-1.62,0.75
			c-3.7-0.61-5.26,5.83-9.36,3.66c-0.03-0.49,0.05-0.94,0.29-1.31c-0.1-0.83-0.25-1.64-0.49-2.39c0.38-0.3,0.89-0.52,1.53-0.67
			c1.11-0.72,3.11,0.84,3.55-2.1c0.08-0.53,0.44-0.92,0.97-1.19c0.01,0,0.02,0,0.02-0.01c1-0.44,1.98-0.34,3.04-0.05
			c0.16-0.01,0.32-0.01,0.48-0.02c-0.02,0.11-0.03,0.22-0.04,0.33C109.72,185.052,108.72,187.092,110.879,186.942z"/>
		<path fill="#47A32C" d="M110.04,181.422c0.58,0.69,0.65,1.41,0.04,2.15c-0.11,0.01-0.21,0.01-0.31,0.01c-0.01,0-0.01,0-0.01,0
			c-0.11-0.04-0.22-0.07-0.34-0.1C109.52,182.712,109.709,182.002,110.04,181.422z"/>
		<path fill="#47A32C" d="M110,181.372c0.01,0.02,0.03,0.03,0.04,0.05c-0.33,0.58-0.52,1.29-0.62,2.06
			c-1.21-0.32-2.61-0.26-3.53,0.19c0,0.01-0.01,0.01-0.02,0.01c-0.18,0.08-0.37,0.19-0.56,0.31c-1.44,0.96-2.72,0.77-3.3-1.12
			c0.28-1.7,1.08-3.09,2.59-3.96c0.13-0.07,0.25-0.14,0.37-0.2c0.87,0.3,1.84,0.27,2.79,0.28c0.14,0.38,0.21,0.92,0.19,1.63
			C107.919,182.132,108.089,182.132,110,181.372z"/>
		<path fill="#EA5F69" d="M109.76,183.582c-0.12,0.01-0.24,0.01-0.35,0.02c0-0.04,0-0.08,0.01-0.12
			C109.54,183.512,109.649,183.542,109.76,183.582z"/>
		<path fill="#EA5F69" d="M109.419,183.482c-0.01,0.04-0.01,0.08-0.01,0.12c-0.16,0.01-0.32,0.01-0.48,0.02
			c-1.06-0.29-2.04-0.39-3.04,0.05C106.81,183.222,108.209,183.162,109.419,183.482z"/>
		<path fill="#E5DBDA" d="M109.16,167.722c0.34,1.45-0.64,3.08-2.9,5.13c-0.91-0.84-1.17-2.57-2.98-2.2
			c0.57-0.81,0.84-1.66,0.96-2.53c0.02,0,0.04-0.01,0.06-0.01c0.39-1.19,0.34-2.11,0.01-2.85c-0.01-0.5-0.01-1,0.02-1.49
			c0.84,0.38,1.58,0.75,2.2,1.13c-0.03,0.03-0.05,0.07-0.07,0.1c0.02,0.73,0.05,1.47,0.08,2.2
			C107.5,167.682,108.379,167.852,109.16,167.722z"/>
		<path fill="#47A32C" d="M109.16,167.722c-0.78,0.13-1.66-0.04-2.62-0.52c-0.03-0.73-0.06-1.47-0.08-2.2
			c0.02-0.03,0.04-0.07,0.07-0.1C108.06,165.812,108.93,166.722,109.16,167.722z"/>
		<path fill="#98D02E" d="M107.76,178.992c-0.95-0.01-1.92,0.02-2.79-0.28C106.28,178.012,107.35,177.802,107.76,178.992z"/>
		<path fill="#47A32C" d="M106.26,172.852c-0.05,0.3-0.02,0.58,0.09,0.86c-0.12,0.24-0.21,0.5-0.3,0.78
			c-0.95,0.87-1.92,1.69-2.97,2.44c0.08,0.16,0.16,0.31,0.26,0.45c-0.31-0.08-0.68-0.22-1.09-0.43c-1.31-2.37-0.59-4.41,1.03-6.3
			C104.129,171.592,104.479,173.182,106.26,172.852z"/>
		<path fill="#47A32C" d="M106.26,172.852c-1.78,0.33-2.13-1.26-2.98-2.2C105.089,170.282,105.35,172.012,106.26,172.852z"/>
		<path fill="#EF5B64" d="M104.31,165.262c0.33,0.74,0.38,1.66-0.01,2.85c-0.02,0-0.04,0.01-0.06,0.01
			C104.37,167.182,104.319,166.222,104.31,165.262z"/>
		<path fill="#47A32C" d="M106.05,174.492c-0.45,1.53-0.59,3.48-2.71,2.89c-0.1-0.14-0.18-0.29-0.26-0.45
			C104.129,176.182,105.1,175.362,106.05,174.492z"/>
		<path fill="#47A32C" d="M104.31,165.262c0.01,0.96,0.06,1.92-0.07,2.86c-0.52,0.07-1.05,0.13-1.57,0.19
			c-2.03-0.85-4.13-1.74-4.11-4.37c0.01-1.19,1.27-1.68,2.23-1.29C102.29,163.262,103.729,163.982,104.31,165.262z"/>
		<path fill="#E7D7D7" d="M100.02,191.342c0.02,1.15,0.55,2.53,0.53,3.66c-2.01-0.02-4.02-0.04-6.02-0.04
			c-0.51-1.34-0.57-2.72-0.51-4.12c1.01-0.18,1.84-0.61,1.85-1.62c0.01-1.11-0.71-1.71-1.68-2.04c0.01-0.25,0.01-0.5,0-0.75
			c0.26-0.01,0.54-0.09,0.87-0.26c1.17-0.64,1.14-1.44,0.81-2.26c2.35,0.68,3.4,2.05,3.95,3.73c-0.87,0.66-1.09,1.71-0.69,3.13
			C99.439,191.012,99.74,191.202,100.02,191.342z"/>
		<path fill="#E7D7D7" d="M100.31,190.032c-0.24,0.37-0.32,0.82-0.29,1.31c-0.28-0.14-0.58-0.33-0.89-0.57
			c-0.4-1.42-0.18-2.47,0.69-3.13C100.06,188.392,100.209,189.202,100.31,190.032z"/>
		<path fill="#E7D7D7" d="M94.53,194.962c2,0,4.01,0.02,6.02,0.04c-0.03,1.42-0.92,2.45-4.73,2.18
			C95.209,196.452,94.8,195.712,94.53,194.962z"/>
		<path fill="#47A32C" d="M99.04,174.402c0.23,2.72-1.5,4.19-3.65,5.35c-0.42,0.22-0.8,0.52-1.21,0.78h-0.01
			c-2.17,0.14-1.89-1.47-2-2.8c0.1-0.31,0.18-0.64,0.3-0.94c0.88-2.2,2.52-3.46,4.82-3.77
			C98.229,172.892,98.97,173.522,99.04,174.402z"/>
		<path fill="#E7D7D7" d="M95.87,183.912c0.33,0.82,0.36,1.62-0.81,2.26c-0.33,0.17-0.61,0.25-0.87,0.26
			c-0.03-0.97-0.16-1.94-0.49-2.91C94.53,183.592,95.25,183.732,95.87,183.912z"/>
		<path fill="#E7D7D7" d="M94.189,187.182c0.97,0.33,1.69,0.93,1.68,2.04c-0.01,1.01-0.84,1.44-1.85,1.62
			C94.06,189.642,94.189,188.412,94.189,187.182z"/>
		<path fill="#E7D7D7" d="M95.1,182.292c0.21,0.52,0.56,1.08,0.77,1.62c-0.62-0.18-1.34-0.32-2.17-0.39
			c0.33,0.97,0.46,1.94,0.49,2.91c-1.2,0.08-1.83-1.34-2.62-2.19c-0.44-0.48-0.84-0.99-1.26-1.49c1.48-1.66,1.1-3.33,0.05-5.01
			c0.6-0.01,1.21-0.01,1.81-0.01c-0.74,2.81-0.36,3.33,2,2.8h0.01C94.479,181.122,94.85,181.682,95.1,182.292z"/>
		<path fill="#47A32C" d="M94.33,167.792c-1.34,1.04-2.67,2.08-4.01,3.13c-0.98-1.38-2.65-1.9-3.79-3.09
			C91.149,163.872,92.669,163.872,94.33,167.792z"/>
		<path fill="#E7D7D7" d="M92.169,177.732c0.11,1.33-0.17,2.94,2,2.8C91.81,181.062,91.43,180.542,92.169,177.732z"/>
		<path fill="#47A32C" d="M94.189,187.182c0,1.23-0.13,2.46-0.17,3.66c-0.73,0.14-1.56,0.15-2.25,0.15c-1.62,0-3.9,0.12-3.98-1.89
			c-0.07-1.98,2.17-2.09,3.83-2.32C92.459,186.822,93.399,186.912,94.189,187.182z"/>
		<path fill="#47A32C" d="M90.359,177.742c1.05,1.68,1.43,3.35-0.05,5.01C90.33,181.082,90.339,179.412,90.359,177.742z"/>
		<path fill="#47A32C" d="M90.339,177.662l0.02,0.08c-0.02,1.67-0.03,3.34-0.05,5.01c-1.9,0.85-3.25,4.93-5.95,1
			C86.87,182.232,87.93,179.282,90.339,177.662z"/>
		<path fill="#F5E9E9" d="M90.339,177.662c-4.28-0.22-4.46,3.59-5.98,6.09c-2.58-0.41-5.17-2.06-7.74,0.03
			c-0.15-0.07-0.3-0.16-0.45-0.23c0.06-0.6,0.1-1.2,0.16-1.8c1.33-0.04,1.94-0.78,2.01-2.06c1,0.94,1.49,3.06,3.36,2.15
			c1.58-0.77,1.24-2.5,0.88-3.99c-0.4-1.62-0.94-3.16-2.22-4.32c1.74-1.64,4.06-2.94,3.83-5.65c0.01,0,0.03-0.01,0.04-0.01
			c0.46-0.09,0.88-0.23,1.25-0.42c0.35,0.13,0.7,0.25,1.05,0.38c-1.06,3.9,1.96,2.76,3.79,3.09
			C85.02,173.182,89.29,175.422,90.339,177.662z"/>
		<path fill="#47A32C" d="M84.359,183.752c1.52-2.5,1.7-6.31,5.98-6.09C87.93,179.282,86.87,182.232,84.359,183.752z"/>
		<path fill="#47A32C" d="M90.319,170.922c-1.83-0.33-4.85,0.81-3.79-3.09C87.669,169.022,89.339,169.542,90.319,170.922z"/>
		<path fill="#47A32C" d="M88.02,162.312c0.09,2.28-0.72,4.24-2.54,5.14c-0.49-0.18-0.98-0.36-1.46-0.54c-0.38,0-0.76,0-1.14,0.01
			c-0.13-0.61-0.09-1.35-0.27-1.8c0.14-2.7,0.96-4.85,3.59-5.43C88.26,159.232,87.979,161.112,88.02,162.312z"/>
		<path fill="#F5E9E9" d="M84.02,166.912c0.48,0.18,0.97,0.36,1.46,0.54c-0.37,0.19-0.79,0.33-1.25,0.42
			c-0.01,0-0.03,0.01-0.04,0.01C84.169,167.572,84.109,167.252,84.02,166.912z"/>
		<path fill="#F5E9E9" d="M84.189,167.882c0.23,2.71-2.09,4.01-3.83,5.65c-0.14,0.03-0.29,0.05-0.43,0.07
			c0.94-2.07,2.45-3.8,3.59-5.75C83.7,167.912,83.919,167.932,84.189,167.882z"/>
		<path fill="#F5E9E9" d="M84.02,166.912c0.09,0.34,0.15,0.66,0.17,0.97c-0.27,0.05-0.49,0.03-0.67-0.03
			C83.7,167.542,83.859,167.232,84.02,166.912z"/>
		<path fill="#F5E9E9" d="M82.879,166.922c0.38-0.01,0.76-0.01,1.14-0.01c-0.16,0.32-0.32,0.63-0.5,0.94
			C83.129,167.732,82.959,167.362,82.879,166.922z"/>
		<path fill="#F5E9E9" d="M82.879,166.922c0.08,0.44,0.25,0.81,0.64,0.93c-1.14,1.95-2.65,3.68-3.59,5.75
			c-0.19,0.04-0.38,0.07-0.57,0.1c-0.68-0.74-1.57-0.79-2.46-0.87c0.02-0.13,0.05-0.26,0.07-0.4c0.1-0.65-0.13-1.04-0.5-1.24
			c0.03-0.19,0.08-0.36,0.13-0.53c0.64,0.46,1.41,0.83,2.28,1.1c1.89,0.08,1.59-1.35,1.57-2.41c-0.02-0.74-0.13-1.43-0.33-2.05
			C80.959,167.062,81.89,166.962,82.879,166.922z"/>
		<path fill="#98D02E" d="M82.58,177.852c0.36,1.49,0.7,3.22-0.88,3.99c-1.87,0.91-2.36-1.21-3.36-2.15
			c0.02-0.03,0.04-0.05,0.06-0.08c0.04-0.04,0.08-0.08,0.13-0.12c1.7,0.28,3.47,0.67,2.55-2.17c-0.36-1.13-0.95-2.19-1.12-3.39
			c0.15-0.09,0.29-0.23,0.4-0.4C81.64,174.692,82.18,176.232,82.58,177.852z"/>
		<path fill="#98D02E" d="M81.93,188.082c0.7,0.79,0.11,1.59-0.58,2.01c-1.89,1.18-3.81,2.72-6.02,0.55
			c0.61-1.19,1.24-2.38,1.14-3.78c0.17-0.01,0.33-0.02,0.49-0.04C78.78,186.592,80.6,186.562,81.93,188.082z"/>
		<path fill="#98D02E" d="M78.319,196.702c1.81,2.02,5.84,3.11,2.98,7.09c-2.46-0.69-4.71-1.7-6.15-3.98
			C76.109,198.682,77.31,197.792,78.319,196.702z"/>
		<path fill="#98D02E" d="M81.08,177.322c0.92,2.84-0.85,2.45-2.55,2.17c-0.05,0.04-0.09,0.08-0.13,0.12
			c1.34-1.66,1.65-3.5,1.08-5.49c0.18-0.03,0.34-0.09,0.48-0.19C80.129,175.132,80.72,176.192,81.08,177.322z"/>
		<path fill="#47A32C" d="M80.45,169.352c0.02,1.06,0.32,2.49-1.57,2.41c-0.87-0.27-1.64-0.64-2.28-1.1
			c0.55-1.94,1.84-2.9,3.52-3.36C80.319,167.922,80.43,168.612,80.45,169.352z"/>
		<path fill="#F5E9E9" d="M79.93,173.602c0.14-0.02,0.29-0.04,0.43-0.07c-0.11,0.17-0.25,0.31-0.4,0.4c-0.02-0.1-0.03-0.2-0.04-0.3
			C79.919,173.622,79.93,173.612,79.93,173.602z"/>
		<path fill="#F5E9E9" d="M79.919,173.632c0.01,0.1,0.02,0.2,0.04,0.3c-0.14,0.1-0.3,0.16-0.48,0.19c-0.03-0.14-0.07-0.28-0.12-0.42
			c0.19-0.03,0.38-0.06,0.57-0.1C79.93,173.612,79.919,173.622,79.919,173.632z"/>
		<path fill="#47A32C" d="M76.31,163.842c1.97,0.48,3.25,1.72,3.81,3.46c-1.68,0.46-2.97,1.42-3.52,3.36
			c-1.3-0.95-2.1-2.31-2.23-4.19C74.28,165.182,74.39,163.372,76.31,163.842z"/>
		<path fill="#98D02E" d="M79.479,174.122c0.57,1.99,0.26,3.83-1.08,5.49c-0.02,0.02-0.04,0.04-0.06,0.06
			c-0.31-1.95-0.18-3.83,0.79-5.57c0.05,0.02,0.1,0.03,0.15,0.04C79.35,174.142,79.419,174.132,79.479,174.122z"/>
		<path fill="#F5E9E9" d="M79.359,173.702c0.05,0.14,0.09,0.28,0.12,0.42c-0.06,0.01-0.13,0.02-0.2,0.02
			c-0.05-0.01-0.1-0.02-0.15-0.04C79.2,173.962,79.28,173.832,79.359,173.702z"/>
		<path fill="#F5F3F2" d="M79.359,173.702c-0.08,0.13-0.16,0.26-0.23,0.4c-0.83-0.19-1.58-0.57-2.3-1c0.03-0.09,0.05-0.18,0.07-0.27
			C77.79,172.912,78.68,172.962,79.359,173.702z"/>
		<path fill="#A02B35" d="M78.399,179.612c-0.02,0.03-0.04,0.05-0.06,0.08c0-0.01,0-0.01,0-0.02
			C78.359,179.652,78.379,179.632,78.399,179.612z"/>
		<path fill="#F5F3F2" d="M78.339,179.672c0,0.01,0,0.01,0,0.02c-0.07,1.28-0.68,2.02-2.01,2.06c0.15-0.14,0.26-0.26,0.31-0.36
			C77.39,181.032,77.76,180.232,78.339,179.672z"/>
		<path fill="#DFC2C3" d="M78.319,196.702c-1.94,0.13-4.98-0.84-3.17,3.11c-0.54,0.14-1.06,0.31-1.55,0.52
			c-0.17-0.21-0.33-0.42-0.47-0.63c-0.49,0.01-0.89,0.07-1.21,0.15l-0.1-0.23c1.79-0.72,1.4-3.06,1.42-5.11
			c0.41-1.15-0.36-1.93-0.88-2.79c1.35-2.48,1.51-5.09,0.89-7.79c0.97-0.09,1.94-0.18,2.91-0.27l0.46,0.12
			c-0.73,0.99-1.93,1.97-0.15,3.08c-1.25,0.99-3.08,1.82-1.14,3.78C74.91,193.362,75.229,195.712,78.319,196.702z"/>
		<path fill="#98D02E" d="M75.149,199.812c-1.81-3.95,1.23-2.98,3.17-3.11C77.31,197.792,76.109,198.682,75.149,199.812z"/>
		<path fill="#F5F3F2" d="M79.129,174.102c-0.97,1.74-1.1,3.62-0.79,5.57c-0.58,0.56-0.95,1.36-1.7,1.72
			c0.17-0.3-0.03-0.46-0.61-0.5c1.99-2.34,1.57-4.77,0.64-7.21c0.06-0.18,0.12-0.38,0.16-0.58
			C77.55,173.532,78.3,173.912,79.129,174.102z"/>
		<path fill="#F5E9E9" d="M76.47,171.192c0.37,0.2,0.6,0.59,0.5,1.24c-0.02,0.14-0.05,0.27-0.07,0.4c-0.2-0.01-0.4-0.03-0.6-0.06
			C76.31,172.192,76.37,171.662,76.47,171.192z"/>
		<path fill="#F5F3F2" d="M76.899,172.832c-0.02,0.09-0.04,0.18-0.07,0.27c-0.18-0.11-0.35-0.22-0.53-0.33
			C76.5,172.802,76.7,172.822,76.899,172.832z"/>
		<path fill="#F5F3F2" d="M76.83,173.102c-0.04,0.2-0.1,0.4-0.16,0.58c-0.12-0.3-0.24-0.61-0.37-0.91
			C76.479,172.882,76.649,172.992,76.83,173.102z"/>
		<path fill="#F5F3F2" d="M76.03,180.892c0.58,0.04,0.78,0.2,0.61,0.5c-0.14,0.08-0.3,0.13-0.48,0.16
			C76.03,181.362,75.99,181.142,76.03,180.892z"/>
		<path fill="#47A32C" d="M76.3,172.772c0.13,0.3,0.25,0.61,0.37,0.91c-0.66,1.97-2.12,3.21-4.46,3.42
			c-1.12-0.17-2.81,0.21-2.44-1.56c0.55-2.67,2.56-4.08,5.19-4.5c0.52-0.08,1.1-0.07,1.51,0.15
			C76.37,171.662,76.31,172.192,76.3,172.772z"/>
		<path fill="#F5F3F2" d="M76.64,181.392c-0.05,0.1-0.16,0.22-0.31,0.36c-0.07-0.06-0.13-0.13-0.17-0.2
			C76.339,181.522,76.5,181.472,76.64,181.392z"/>
		<path fill="#98D02E" d="M76.47,186.862c0.1,1.4-0.53,2.59-1.14,3.78C73.39,188.682,75.22,187.852,76.47,186.862z"/>
		<path fill="#98D02E" d="M76.33,181.752c-0.06,0.6-0.1,1.2-0.16,1.8c-0.05-0.03-0.1-0.06-0.15-0.08c-0.32-0.65-0.29-1.29,0.1-1.91
			c0.01,0,0.03,0,0.04-0.01C76.2,181.622,76.26,181.692,76.33,181.752z"/>
		<path fill="#98D02E" d="M76.02,183.472c0.05,0.02,0.1,0.05,0.15,0.08c0,0.04-0.01,0.07-0.01,0.11c-1.04-0.75-2.02-0.76-2.91,0.27
			c-2.77-0.56-4.95-1.88-6-4.64c-0.27-0.71,0.03-1.37,0.81-1.46c2.76-0.33,5.29,0.19,7.26,2.37c0.22,0.24,0.47,0.46,0.71,0.69
			c-0.04,0.25,0,0.47,0.13,0.66c-0.01,0.01-0.03,0.01-0.04,0.01C75.729,182.182,75.7,182.822,76.02,183.472z"/>
		<path fill="#98D02E" d="M76.16,183.662c-0.97,0.09-1.94,0.18-2.91,0.27C74.14,182.902,75.12,182.912,76.16,183.662z"/>
		<path fill="#98D02E" d="M74.78,202.182c0.64,1.8,2.29,4.23,0.36,5.44c-1.85,1.15-2.64-1.85-4.03-2.84c0.35-0.72-0.1-1.75-0.33-2.7
			c0.83-0.75,1.77-1.33,2.82-1.75C74.06,200.922,74.54,201.512,74.78,202.182z"/>
		<path fill="#98D02E" d="M73.129,199.702c0.14,0.21,0.3,0.42,0.47,0.63c-1.05,0.42-1.99,1-2.82,1.75
			c-0.24-0.99-0.25-1.89,1.14-2.23C72.24,199.772,72.64,199.712,73.129,199.702z"/>
		<path fill="#98D02E" d="M72.359,191.722c0.52,0.86,1.29,1.64,0.88,2.79C72.51,193.712,71.5,193.012,72.359,191.722z"/>
		<path fill="#98D02E" d="M73.24,194.512c-0.32,0.06-0.64,0.13-0.97,0.2c-2.32,0.53-4.56,0.58-6.56-1c-0.72-0.58-0.42-1.29,0.1-1.64
			c2.09-1.4,4.31-1.39,6.55-0.35C71.5,193.012,72.51,193.712,73.24,194.512z"/>
		<path fill="#DFC2C3" d="M71.819,199.622l0.1,0.23c-1.39,0.34-1.38,1.24-1.14,2.23c-0.52,0.46-1,0.99-1.43,1.59
			c-0.69,0.61-0.83,1.44-0.93,2.29c-0.27-0.13-0.59-0.19-0.95-0.14c-0.61,0.08-1.04,0.35-1.35,0.75c-0.41-1.57-0.04-3.25,0.23-4.91
			c1.47,0.11,3.25,0.69,2.96-1.92C70.43,199.922,71.24,199.862,71.819,199.622z"/>
		<path fill="#98D02E" d="M70.169,208.342c1.32,2.86,1.21,5.74-0.28,8.98c-3.16-2.12-4.91-4.55-4.61-8.04
			c0.08-0.95,0.26-2.01,0.84-2.71c0.19,0.76,0.56,1.49,1.21,2.18c0.91-0.71,0.97-1.76,1.09-2.79
			C69.27,206.362,69.75,207.462,70.169,208.342z"/>
		<path fill="#98D02E" d="M69.31,199.742c0.29,2.61-1.49,2.03-2.96,1.92C67.18,200.782,68.16,200.132,69.31,199.742z"/>
		<path fill="#98D02E" d="M68.22,198.102c0.4,0.52,0.73,1.09,1.09,1.64c-1.15,0.39-2.13,1.04-2.96,1.92
			c-0.41-0.28-0.82-0.54-1.21-0.83c-1.69-1.25-3.73-2.21-3.99-4.64c-0.02-0.2,0.68-0.65,1.07-0.7
			C64.709,195.202,66.72,196.092,68.22,198.102z"/>
		<path fill="#98D02E" d="M68.419,205.962c-0.12,1.03-0.18,2.08-1.09,2.79c-0.65-0.69-1.02-1.42-1.21-2.18
			c0.31-0.4,0.74-0.67,1.35-0.75C67.83,205.772,68.149,205.832,68.419,205.962z"/>
	</g>
	<g>
	</g>
</g>
<path fill-rule="evenodd" clip-rule="evenodd" fill="#F09CA4" d="M312.019,155.612c-4.944-2.398-9.635-5.483-15.336-5.871
	c-1.963-0.134-3.316-1.191-5.563-3.43c8.378,1.934,15.681,3.147,21.547,8.325C312.451,154.959,312.234,155.286,312.019,155.612z"/>
<path fill-rule="evenodd" clip-rule="evenodd" fill="#F44F5B" d="M233.694,132.204c-1.239,5.843-3.445,10.728-0.064,16.818
	c6.883,12.397,7.14,26.468,7.708,40.3c0.083,2.012-0.972,2.549-2.771,2.539c-11.154-0.062-22.309-0.141-33.462-0.063
	c-2.94,0.021-3.147-1.588-3.146-3.823c0.014-12.934,1.99-25.691,6.598-37.627c2.373-6.148,0.663-10.883-0.77-16.277
	c-2.528-0.487-1.513,5.52-5.319,2.886c-1.896-1.312-4.118-2.144-6.162-3.252c-1.569-0.851-1.265-2.117-0.641-3.431
	c2.139-4.51,4.276-9.02,6.388-13.542c1.575-3.374,4.82-3.18,7.719-3.549c3.118-0.397,2.503,2.556,3.264,4.133
	c1.596,3.306,3.474,6.289,7.59,6.241c3.845-0.044,5.841-2.766,7.262-5.967c2.027-4.566,5.821-5.315,9.335-1.326
	c3.863,4.386,5.932,9.975,8.844,15.003c0.792,1.368,0.008,2.134-1.302,2.595c-1.097,0.386-2.226,0.755-3.225,1.332
	C237.933,137.274,234.942,137.721,233.694,132.204z"/>
<path fill-rule="evenodd" clip-rule="evenodd" fill="#E2E2E2" d="M221.312,252.455c-0.118,9.305,1.168,8.242-7.646,8.286
	c-10.288,0.052-9.34,0.828-9.346-9.441c-0.005-7.552,0.001-7.579,10.251-7.538C222.554,243.793,221.179,243.051,221.312,252.455z"/>
<path fill-rule="evenodd" clip-rule="evenodd" fill="#E2E2E2" d="M200.31,252.289c0,8.468,0,8.468-9.484,8.464
	c-7.519-0.003-7.519-0.003-7.516-9.286c0.004-7.72,0.004-7.75,10.09-7.705C201.491,243.799,200.186,242.953,200.31,252.289z"/>
<path fill-rule="evenodd" clip-rule="evenodd" fill="#E2E2E2" d="M226.304,252.031c0.13-9.438-1.204-8.244,8.142-8.253
	c8.97-0.009,7.759-1.113,7.872,8.024c0.006,0.5-0.004,0.998,0.002,1.496c0.075,7.455,0.074,7.514-7.314,7.439
	C224.938,260.639,226.463,262.118,226.304,252.031z"/>
<path fill-rule="evenodd" clip-rule="evenodd" fill="#F3505C" d="M189.288,221.527c4.752-0.008,8.188,3.323,8.227,7.98
	c0.041,4.662-3.369,8.258-7.958,8.392c-4.856,0.142-8.538-3.489-8.471-8.355C181.151,224.772,184.464,221.535,189.288,221.527z"/>
<path fill-rule="evenodd" clip-rule="evenodd" fill="#D7D9D9" d="M203.027,97.208c12.522,0,25.044,0,37.565,0
	c0.004,0.335,0.007,0.67,0.01,1.005c-12.523,0-25.047,0-37.572,0C203.03,97.877,203.028,97.542,203.027,97.208z"/>
<path fill-rule="evenodd" clip-rule="evenodd" fill="#D7D7D7" d="M251.206,76.181c1.377,0.2,2.639,0.363,3.895,0.571
	c1.681,0.279,5.301-0.173,5.604,0.25c1.484,2.067-0.16,4.476-0.31,6.742c-0.049,0.743-1.94,1.01-2.419,1.092
	c-1.042,0.179-4.167-0.25-6.862-1.092C250.605,81.26,250.766,78.914,251.206,76.181z"/>
<path fill-rule="evenodd" clip-rule="evenodd" fill="#D6D7D8" d="M205.374,217.606c12.241-2.706,30.338-2.489,35.139,0
	C228.633,217.606,217.003,217.606,205.374,217.606z"/>
<path fill-rule="evenodd" clip-rule="evenodd" fill="#F15468" d="M206.226,92.375c10.117,0,20.233,0,30.351,0
	c0.005,0.32,0.011,0.639,0.016,0.958c-10.108,0-20.218,0-30.325,0C206.253,93.014,206.239,92.694,206.226,92.375z"/>
<path fill-rule="evenodd" clip-rule="evenodd" fill="#CACACC" d="M205.493,212.982c10.918,0,21.838,0,32.757,0
	c0.001,0.18,0.001,0.358,0.001,0.537c-10.896,0-21.793,0-32.689,0C205.538,213.341,205.515,213.162,205.493,212.982z"/>
<path fill-rule="evenodd" clip-rule="evenodd" fill="#525151" d="M225.349,229.395c0.064,1.793-0.44,3.299-1.572,3.262
	c-2.257-0.074-1.928-2.743-3.058-4.076c-0.548-0.647,0.14-1.756,1.577-1.393C223.846,227.578,225.487,227.703,225.349,229.395z"/>
<path fill-rule="evenodd" clip-rule="evenodd" fill="#A2A6A7" d="M231.212,229.693c-0.049,1.52-0.887,2.068-2.277,1.933
	c-0.936-0.092-1.523-0.57-1.545-1.565c-0.03-1.47,0.893-2.04,2.176-2.171C230.903,227.754,231.247,228.579,231.212,229.693z"/>
<path fill-rule="evenodd" clip-rule="evenodd" fill="#262525" d="M218.245,234.147c-1.275-3.208-0.602-5.306-1.119-7.177
	C219.606,228.471,219.147,230.526,218.245,234.147z"/>
<path fill-rule="evenodd" clip-rule="evenodd" fill="#C0C1C2" d="M192.11,83.336c-2.762,0.319-5.322,0.843-8.766-0.26
	C186.972,82.629,189.646,82.545,192.11,83.336z"/>
<path fill-rule="evenodd" clip-rule="evenodd" fill="#C1C2C4" d="M191.891,81.493c-2.535,0-5.071,0-7.606,0
	C186.979,80.636,189.651,80.528,191.891,81.493z"/>
<path fill-rule="evenodd" clip-rule="evenodd" fill="#C1C3C2" d="M184.53,78.948c2.564,0,5.128,0,7.691,0
	c0.002,0.172,0.003,0.344,0.004,0.516c-2.611,0-5.222,0-7.833,0C184.438,79.292,184.485,79.12,184.53,78.948z"/>
<path fill-rule="evenodd" clip-rule="evenodd" fill="#D03E48" d="M220.595,157.603c1.691,6.73,6.572,10.944,11.506,15.092
	c1.918,1.611,1.104,3.675,1.084,5.574c-0.011,1.147-0.482,2.433-1.586,2.929c-1.35,0.605-2.059-0.746-2.857-1.504
	C222.428,173.707,220.577,166.044,220.595,157.603z"/>
<path fill-rule="evenodd" clip-rule="evenodd" fill="#F2747D" d="M190.691,226.18c-4.979,4.422-5.183,4.921,1.123,7.071
	c-3.218-0.06-5.955-0.701-6.305-2.69C185.76,227.918,189.004,227.604,190.691,226.18z"/>
</svg>
